# xmcd
#
# Track frame offsets:
#	150
#	17994
#	33799
#	50663
#	69196
#	88875
#	111608
#	131200
#	153748
#	180950
#	197564
#	220057
#	242177
#	243559
#	256104
#	274724
#
# Disc length: 4180 seconds
#
# Revision: 0
# Processed by: cddbd v1.5PL3 Copyright (c) Steve Scherf et al.
# Submitted via: dBpowerAMP V4.0
#
DISCID=e7105210
DTITLE=Beyonce - Dangerously In Love
DYEAR=2003
DGENRE=R&B
TTITLE0=Crazy In Love ft. Jay-Z
TTITLE1=Naughty Girl
TTITLE2=Baby Boy ft. Sean Paul
TTITLE3=Hip Hop Star ft. Big Boi And Sleepy Brown
TTITLE4=Be With You
TTITLE5=Me Myself And I
TTITLE6=Yes
TTITLE7=Signs ft. Missy Elliot
TTITLE8=Speechless
TTITLE9=Thats How You Like It ft. Jay-Z
TTITLE10=The Closer I Get To You ft. Luther Vandross
TTITLE11=Dangerously In Love 2
TTITLE12=Beyonce Interlude
TTITLE13=Gift. From Virgo
TTITLE14=Work It Out
TTITLE15=Bonnie And Clyde 03
EXTD=
EXTT0=
EXTT1=
EXTT2=
EXTT3=
EXTT4=
EXTT5=
EXTT6=
EXTT7=
EXTT8=
EXTT9=
EXTT10=
EXTT11=
EXTT12=
EXTT13=
EXTT14=
EXTT15=
PLAYORDER=
